<svg width="13" height="14" viewBox="0 0 13 14" fill="none" xmlns="http://www.w3.org/2000/svg">
<path d="M12.8031 13.3881V8.81645C12.8031 6.56961 12.3194 4.85327 9.6981 4.85327C8.43426 4.85327 7.59169 5.53981 7.24842 6.19514H7.21722V5.05611H4.73633V13.3881H7.32644V9.25334C7.32644 8.16112 7.52928 7.11572 8.87114 7.11572C10.1974 7.11572 10.213 8.34836 10.213 9.31575V13.3725H12.8031V13.3881Z" fill="white"/>
<path d="M0.523682 5.05566H3.11379V13.3877H0.523682V5.05566Z" fill="white"/>
<path d="M1.8187 0.905762C0.991733 0.905762 0.320801 1.57669 0.320801 2.40366C0.320801 3.23062 0.991733 3.91715 1.8187 3.91715C2.64566 3.91715 3.31659 3.23062 3.31659 2.40366C3.31659 1.57669 2.64566 0.905762 1.8187 0.905762Z" fill="white"/>
</svg>
