<svg width="42" height="42" viewBox="0 0 42 42" fill="none" xmlns="http://www.w3.org/2000/svg">
<path d="M14.7632 29.6911L5.76741 38.6868C5.23835 39.2157 4.3805 39.2159 3.85145 38.6868C3.32231 38.1577 3.32231 37.2998 3.85145 36.7708L12.8472 27.7751C13.3765 27.2461 14.2343 27.246 14.7632 27.7751C15.2923 28.3041 15.2923 29.162 14.7632 29.6911ZM2.87903 30.0314C2.34989 29.5023 2.34989 28.6445 2.87903 28.1155L6.42864 24.5658C6.95769 24.0367 7.81554 24.0367 8.3446 24.5658C8.87374 25.0949 8.87374 25.9527 8.3446 26.4818L4.79499 30.0314C4.26602 30.5604 3.40809 30.5605 2.87903 30.0314ZM17.9725 34.1936C18.5016 34.7227 18.5016 35.5805 17.9725 36.1096L14.4228 39.6592C14.1583 39.9238 13.8115 40.056 13.4649 40.056C12.2686 40.056 11.651 38.599 12.5069 37.7432L16.0566 34.1936C16.5856 33.6645 17.4434 33.6645 17.9725 34.1936Z" fill="white"/>
<path d="M40.2222 0.0689137L0.932693 12.9072C-0.176898 13.2698 -0.337359 14.779 0.672484 15.3662L15.5204 24C15.9888 24.2724 16.5743 24.2395 17.0091 23.9165L21.183 20.8168L18.0833 24.9907C17.7604 25.4257 17.7275 26.0112 17.9999 26.4795L26.6336 41.3274C27.2215 42.3381 28.7304 42.1759 29.0927 41.0672L41.931 1.77767C42.2754 0.722695 41.2721 -0.274362 40.2222 0.0689137ZM27.456 37.3514L20.791 25.8893L28.8279 15.0673C29.2283 14.5279 29.1732 13.7766 28.6981 13.3015C28.2232 12.8265 27.4717 12.7713 26.9324 13.1718L16.1104 21.2087L4.64835 14.5436L38.526 3.47373L27.456 37.3514Z" fill="white"/>
</svg>
