<svg width="20" height="20" viewBox="0 0 20 20" fill="none" xmlns="http://www.w3.org/2000/svg">
<path d="M19.4579 19.4582V12.3317C19.4579 8.82928 18.7039 6.15381 14.6178 6.15381C12.6477 6.15381 11.3342 7.224 10.7992 8.24554H10.7505V6.47H6.88324V19.4582H10.9208V13.0127C10.9208 11.3102 11.237 9.68056 13.3287 9.68056C15.3961 9.68056 15.4204 11.602 15.4204 13.11V19.4339H19.4579V19.4582Z" fill="#131631"/>
<path d="M0.316223 6.46924H4.35375V19.4574H0.316223V6.46924Z" fill="#131631"/>
<path d="M2.33495 0C1.04586 0 0 1.04586 0 2.33495C0 3.62404 1.04586 4.69423 2.33495 4.69423C3.62404 4.69423 4.66991 3.62404 4.66991 2.33495C4.66991 1.04586 3.62404 0 2.33495 0Z" fill="#131631"/>
</svg>
