<svg width="181" height="37" viewBox="0 0 181 37" fill="none" xmlns="http://www.w3.org/2000/svg">
<path fill-rule="evenodd" clip-rule="evenodd" d="M55.1773 20.0914C55.1773 19.4565 54.9524 18.9642 54.5021 18.6212C54.0519 18.2749 53.24 17.9284 52.0704 17.5754C50.8972 17.2257 49.9631 16.8318 49.2706 16.4005C47.9474 15.5721 47.2821 14.4888 47.2821 13.1546C47.2821 11.9864 47.7601 11.0256 48.7181 10.2683C49.6732 9.51101 50.9141 9.1343 52.4388 9.1343C53.4519 9.1343 54.3521 9.3211 55.1468 9.69113C55.9379 10.0647 56.5619 10.591 57.0157 11.2803C57.4656 11.9661 57.694 12.7265 57.694 13.5656H55.1773C55.1773 12.808 54.9386 12.2172 54.4614 11.7929C53.9875 11.3649 53.3051 11.1511 52.4186 11.1511C51.5932 11.1511 50.9514 11.3277 50.4953 11.6774C50.0377 12.0271 49.8093 12.5163 49.8093 13.1477C49.8093 13.6773 50.0585 14.1188 50.5496 14.4718C51.044 14.8252 51.8558 15.1682 52.9881 15.504C54.1202 15.837 55.0311 16.2206 55.7164 16.6483C56.4017 17.0762 56.903 17.5685 57.2234 18.122C57.5441 18.6788 57.7044 19.3275 57.7044 20.0709C57.7044 21.2798 57.2403 22.2407 56.3094 22.9571C55.3822 23.6701 54.1202 24.0267 52.5275 24.0267C51.4769 24.0267 50.5085 23.833 49.6251 23.4426C48.7422 23.0556 48.0567 22.5191 47.5688 21.8366C47.0777 21.1543 46.8323 20.3563 46.8323 19.4463H49.3624C49.3624 20.268 49.6352 20.9029 50.1812 21.3544C50.7268 21.8061 51.5078 22.0302 52.5275 22.0302C53.407 22.0302 54.0691 21.8537 54.5121 21.497C54.9558 21.1439 55.1773 20.6754 55.1773 20.0914ZM58.6447 18.3461C58.6447 17.2903 58.856 16.3396 59.2757 15.494C59.6952 14.6486 60.285 14 61.0459 13.545C61.8027 13.09 62.676 12.8623 63.6614 12.8623C65.1208 12.8623 66.3048 13.3312 67.215 14.2647C68.1225 15.2021 68.6135 16.4412 68.6884 17.9863L68.6984 18.5533C68.6984 19.6162 68.4939 20.5634 68.0844 21.3987C67.6718 22.2339 67.0891 22.8825 66.3251 23.3407C65.5614 23.7992 64.6809 24.0267 63.6823 24.0267C62.1576 24.0267 60.9368 23.5206 60.0193 22.5088C59.1053 21.497 58.6447 20.1492 58.6447 18.465V18.3461ZM61.0729 18.55C61.0729 19.6569 61.3047 20.5225 61.7654 21.1506C62.2222 21.779 62.8633 22.0914 63.6823 22.0914C64.5006 22.0914 65.1378 21.7723 65.5953 21.1373C66.0525 20.4988 66.2809 19.5684 66.2809 18.3391C66.2809 17.253 66.0455 16.3903 65.5745 15.7518C65.1074 15.1169 64.4694 14.7979 63.6614 14.7979C62.8702 14.7979 62.2395 15.1103 61.7755 15.7384C61.3085 16.3666 61.0729 17.3003 61.0729 18.55ZM72.4291 13.0661L72.4968 14.3056C73.2981 13.3445 74.3455 12.8623 75.6448 12.8623C77.8951 12.8623 79.0414 14.1461 79.0825 16.7129V23.8229H76.6543V16.8488C76.6543 16.1663 76.5074 15.6602 76.2105 15.3309C75.9145 15.0014 75.4302 14.8385 74.7581 14.8385C73.7758 14.8385 73.0494 15.2802 72.5691 16.1628V23.8229H70.1407V13.0661H72.4291ZM83.2321 13.0661L83.3005 14.3056C84.1018 13.3445 85.1485 12.8623 86.4478 12.8623C88.6988 12.8623 89.8451 14.1461 89.8855 16.7129V23.8229H87.4579V16.8488C87.4579 16.1663 87.311 15.6602 87.0143 15.3309C86.7174 15.0014 86.2333 14.8385 85.5611 14.8385C84.5789 14.8385 83.8523 15.2802 83.372 16.1628V23.8229H80.9437V13.0661H83.2321ZM95.5669 20.3596L97.7659 13.0661H100.355L96.0579 25.4494C95.3958 27.2592 94.2775 28.1624 92.6987 28.1624C92.3472 28.1624 91.9581 28.1014 91.5323 27.9825V26.0945L91.9892 26.1249C92.603 26.1249 93.0632 26.0129 93.3739 25.7922C93.6839 25.5716 93.9295 25.198 94.1068 24.6751L94.4579 23.7549L90.6626 13.0661H93.2782L95.5669 20.3596ZM111.844 18.2612H109.026V23.8229H106.5V9.33811H111.615C113.293 9.33811 114.589 9.71503 115.499 10.4654C116.414 11.2157 116.87 12.3021 116.87 13.7215C116.87 14.6927 116.635 15.504 116.164 16.1594C115.694 16.8145 115.039 17.3171 114.2 17.6704L117.467 23.694V23.8229H114.759L111.844 18.2612ZM109.026 16.2239H111.622C112.475 16.2239 113.143 16.0101 113.62 15.5823C114.101 15.1543 114.339 14.5705 114.339 13.8302C114.339 13.0559 114.118 12.455 113.675 12.0306C113.235 11.6063 112.573 11.389 111.694 11.3753H109.026V16.2239ZM117.995 18.3461C117.995 17.2903 118.206 16.3396 118.626 15.494C119.046 14.6486 119.635 14 120.396 13.545C121.153 13.09 122.026 12.8623 123.012 12.8623C124.471 12.8623 125.655 13.3312 126.565 14.2647C127.472 15.2021 127.963 16.4412 128.039 17.9863L128.049 18.5533C128.049 19.6162 127.844 20.5634 127.435 21.3987C127.022 22.2339 126.439 22.8825 125.675 23.3407C124.911 23.7992 124.031 24.0267 123.032 24.0267C121.507 24.0267 120.287 23.5206 119.369 22.5088C118.456 21.497 117.995 20.1492 117.995 18.465V18.3461ZM120.423 18.55C120.423 19.6569 120.655 20.5225 121.116 21.1506C121.573 21.779 122.214 22.0914 123.032 22.0914C123.85 22.0914 124.488 21.7723 124.945 21.1373C125.402 20.4988 125.63 19.5684 125.63 18.3391C125.63 17.253 125.395 16.3903 124.925 15.7518C124.458 15.1169 123.82 14.7979 123.012 14.7979C122.22 14.7979 121.59 15.1103 121.126 15.7384C120.659 16.3666 120.423 17.3003 120.423 18.55ZM139.016 18.5533C139.016 20.2271 138.64 21.5549 137.891 22.5428C137.14 23.5309 136.11 24.0267 134.797 24.0267C133.532 24.0267 132.546 23.5718 131.84 22.6652L131.721 23.8229H129.521V8.54346H131.95V14.0951C132.648 13.2732 133.593 12.8623 134.777 12.8623C136.096 12.8623 137.133 13.3513 137.883 14.326C138.637 15.3004 139.016 16.6622 139.016 18.4141V18.5533ZM136.587 18.3391C136.587 17.1715 136.38 16.2986 135.966 15.7145C135.554 15.1306 134.954 14.8385 134.17 14.8385C133.115 14.8385 132.376 15.2971 131.95 16.2104V20.6481C132.383 21.5819 133.129 22.0508 134.19 22.0508C134.947 22.0508 135.533 21.7687 135.946 21.2052C136.359 20.6414 136.574 19.7891 136.587 18.6485V18.3391ZM140.011 18.3461C140.011 17.2903 140.222 16.3396 140.642 15.494C141.061 14.6486 141.651 14 142.411 13.545C143.169 13.09 144.042 12.8623 145.027 12.8623C146.487 12.8623 147.67 13.3312 148.581 14.2647C149.488 15.2021 149.979 16.4412 150.054 17.9863L150.064 18.5533C150.064 19.6162 149.86 20.5634 149.45 21.3987C149.038 22.2339 148.455 22.8825 147.691 23.3407C146.927 23.7992 146.047 24.0267 145.047 24.0267C143.523 24.0267 142.303 23.5206 141.385 22.5088C140.471 21.497 140.011 20.1492 140.011 18.465V18.3461ZM142.439 18.55C142.439 19.6569 142.671 20.5225 143.131 21.1506C143.588 21.779 144.229 22.0914 145.047 22.0914C145.866 22.0914 146.504 21.7723 146.961 21.1373C147.418 20.4988 147.646 19.5684 147.646 18.3391C147.646 17.253 147.411 16.3903 146.94 15.7518C146.473 15.1169 145.835 14.7979 145.027 14.7979C144.236 14.7979 143.605 15.1103 143.141 15.7384C142.674 16.3666 142.439 17.3003 142.439 18.55ZM154.592 10.4587V13.0661H156.499V14.8589H154.592V20.8655C154.592 21.2765 154.675 21.5752 154.838 21.7554C154.998 21.9386 155.292 22.0302 155.711 22.0302C155.991 22.0302 156.274 21.9962 156.561 21.9318V23.7992C156.008 23.9521 155.476 24.0267 154.961 24.0267C153.096 24.0267 152.165 23.0013 152.165 20.9538V14.8589H150.385V13.0661H152.165V10.4587H154.592ZM160.348 23.8229H157.921V13.0661H160.348V23.8229ZM157.771 10.2548C157.771 9.88126 157.89 9.56893 158.125 9.3211C158.364 9.07326 158.702 8.95085 159.141 8.95085C159.581 8.95085 159.919 9.07326 160.161 9.3211C160.4 9.56893 160.519 9.88126 160.519 10.2548C160.519 10.6213 160.4 10.927 160.161 11.1715C159.919 11.416 159.581 11.5382 159.141 11.5382C158.702 11.5382 158.364 11.416 158.125 11.1715C157.89 10.927 157.771 10.6213 157.771 10.2548ZM166.855 22.0914C167.459 22.0914 167.963 21.9149 168.362 21.5651C168.761 21.2152 168.976 20.7806 169 20.2645H171.288C171.265 20.9368 171.053 21.5616 170.661 22.1421C170.269 22.7229 169.733 23.1812 169.061 23.5206C168.39 23.8569 167.663 24.0267 166.882 24.0267C165.371 24.0267 164.171 23.5376 163.287 22.5631C162.401 21.5888 161.958 20.2408 161.958 18.5228V18.2749C161.958 16.638 162.398 15.3241 163.277 14.3394C164.158 13.3549 165.354 12.8623 166.872 12.8623C168.157 12.8623 169.208 13.236 170.016 13.9829C170.825 14.7267 171.251 15.7078 171.288 16.9234H169C168.976 16.3022 168.765 15.7961 168.365 15.3954C167.97 14.9983 167.466 14.7979 166.855 14.7979C166.067 14.7979 165.46 15.083 165.034 15.6502C164.608 16.217 164.392 17.0762 164.386 18.2306V18.6178C164.386 19.7858 164.597 20.6548 165.02 21.2287C165.443 21.8027 166.054 22.0914 166.855 22.0914ZM178.61 20.8994C178.61 20.4716 178.432 20.1425 178.077 19.9183C177.719 19.6906 177.13 19.4937 176.304 19.3206C175.475 19.1474 174.787 18.93 174.234 18.6618C173.023 18.0813 172.416 17.2324 172.416 16.1256C172.416 15.1986 172.809 14.4209 173.596 13.7964C174.381 13.1747 175.38 12.8623 176.594 12.8623C177.883 12.8623 178.93 13.1816 179.725 13.8167C180.519 14.4549 180.918 15.2802 180.918 16.2953H178.49C178.49 15.8333 178.316 15.4464 177.972 15.1373C177.624 14.8285 177.167 14.6756 176.594 14.6756C176.059 14.6756 175.626 14.7979 175.288 15.0423C174.954 15.2902 174.783 15.6162 174.783 16.0271C174.783 16.4005 174.94 16.6892 175.254 16.893C175.568 17.1002 176.198 17.3073 177.153 17.5141C178.105 17.7247 178.851 17.9724 179.394 18.2612C179.939 18.55 180.342 18.8963 180.605 19.3002C180.867 19.7043 181 20.1967 181 20.7739C181 21.7415 180.594 22.526 179.789 23.1269C178.985 23.7279 177.928 24.0267 176.621 24.0267C175.738 24.0267 174.947 23.8671 174.255 23.5478C173.563 23.2288 173.023 22.7908 172.635 22.2339C172.249 21.6769 172.055 21.076 172.055 20.4342H174.415C174.449 21.005 174.664 21.4429 175.063 21.7517C175.462 22.0606 175.994 22.2133 176.652 22.2133C177.293 22.2133 177.778 22.0914 178.112 21.8503C178.446 21.6092 178.61 21.2935 178.61 20.8994Z" fill="#131631"/>
<path fill-rule="evenodd" clip-rule="evenodd" d="M7.78437 15.6539L2.73937 29.2219C2.5011 29.2766 2.26927 29.3554 2.04834 29.4563C1.226 29.8316 0.549543 30.5143 0.21487 31.4149C-0.120025 32.3154 -0.0500881 33.2636 0.333285 34.0685C0.716769 34.8738 1.41402 35.5357 2.33387 35.8631C3.25383 36.191 4.22261 36.1229 5.04517 35.7474C5.86751 35.3718 6.54352 34.6895 6.87864 33.7888C7.2132 32.8883 7.14338 31.9401 6.76 31.135C6.65949 30.9242 6.53752 30.7233 6.39564 30.5356L12.105 15.1803L12.5824 13.8968C12.8176 13.2644 12.4815 12.5589 11.8354 12.3286L10.5244 11.8618L5.85917 10.1993C5.21328 9.96948 4.49234 10.2981 4.2573 10.9306L3.78008 12.214C3.54492 12.8464 3.88126 13.5521 4.52704 13.782L7.22443 14.7431L7.39933 14.8054C7.72677 14.9435 7.89133 15.3167 7.78437 15.6539ZM2.15019 31.2357C1.79261 31.5857 1.57157 32.0693 1.57157 32.6031C1.57157 33.1371 1.79261 33.6207 2.15019 33.9706C2.50755 34.3203 3.00155 34.537 3.54714 34.537C4.09274 34.537 4.58641 34.3203 4.94399 33.9706C5.30134 33.6207 5.5226 33.1371 5.5226 32.6031C5.5226 32.0693 5.30134 31.5857 4.94399 31.2357C4.58641 30.8857 4.09274 30.6693 3.54714 30.6693C3.00155 30.6693 2.50755 30.8857 2.15019 31.2357Z" fill="#131631"/>
<path fill-rule="evenodd" clip-rule="evenodd" d="M0.0361823 22.5493L2.3442 15.6222C2.45761 15.2818 2.80529 15.1046 3.11706 15.2285L4.66656 15.8444C4.97822 15.9686 5.14033 16.3484 5.02703 16.689L2.71901 23.6158C2.6056 23.9562 2.25781 24.1335 1.94615 24.0097L0.396651 23.3937C0.0849934 23.2695 -0.0772284 22.8896 0.0361823 22.5493Z" fill="#131631"/>
<path fill-rule="evenodd" clip-rule="evenodd" d="M28.2894 20.9178L33.3344 7.01898C33.5724 6.96272 33.8047 6.8821 34.0256 6.77859C34.8477 6.39399 35.5242 5.69474 35.8591 4.77244C36.1938 3.85015 36.1242 2.87848 35.7407 2.05381C35.357 1.22925 34.6598 0.551117 33.7396 0.215332C32.8199 -0.120453 31.8511 -0.050405 31.0284 0.334191C30.2062 0.718564 29.53 1.41804 29.1951 2.34034C28.8603 3.26286 28.9304 4.2343 29.3135 5.05897C29.4142 5.27501 29.536 5.4807 29.6779 5.67328L23.9683 21.4031L23.4913 22.7177C23.2562 23.3655 23.5923 24.0883 24.2381 24.3241L25.5494 24.8026L30.2144 26.5052C30.8607 26.741 31.5808 26.404 31.8162 25.7562L32.2934 24.4416C32.5288 23.7939 32.1923 23.071 31.5467 22.8352L28.8493 21.8509L28.6744 21.7868C28.3467 21.6454 28.1822 21.2635 28.2894 20.9178ZM33.9238 4.9559C34.2807 4.59732 34.5022 4.10221 34.5022 3.55517C34.5022 3.00813 34.2807 2.51279 33.9238 2.15421C33.5662 1.79563 33.0717 1.57393 32.5269 1.57393C31.9808 1.57393 31.4871 1.79563 31.1295 2.15421C30.772 2.51279 30.5511 3.00813 30.5511 3.55517C30.5511 4.10221 30.772 4.59732 31.1295 4.9559C31.4871 5.31448 31.9808 5.53619 32.5269 5.53619C33.0717 5.53619 33.5662 5.31448 33.9238 4.9559Z" fill="#131631"/>
<path fill-rule="evenodd" clip-rule="evenodd" d="M36.0329 13.6319L33.4363 21.0539C33.3085 21.4186 32.9179 21.6082 32.5668 21.4755L30.8237 20.8154C30.4734 20.6828 30.2911 20.2758 30.4181 19.911L33.0148 12.4892C33.1421 12.1242 33.5338 11.9345 33.8845 12.0673L35.6272 12.7275C35.9779 12.86 36.1601 13.2671 36.0329 13.6319Z" fill="#131631"/>
<path fill-rule="evenodd" clip-rule="evenodd" d="M15.1558 28.2893L29.0549 33.3342C29.1109 33.5726 29.1917 33.8044 29.2949 34.0254C29.6795 34.8478 30.3784 35.5239 31.3009 35.8588C32.2238 36.1935 33.1951 36.1238 34.0199 35.7401C34.8443 35.3568 35.5222 34.6595 35.8583 33.7396C36.1937 32.8198 36.1241 31.8512 35.7394 31.0285C35.3546 30.2061 34.6559 29.53 33.733 29.1951C32.8105 28.8602 31.8389 28.93 31.0148 29.3135C30.7987 29.4139 30.593 29.5359 30.4004 29.6778L14.6708 23.9684L13.3559 23.491C12.7081 23.256 11.9853 23.5922 11.7497 24.2381L11.2711 25.5493L9.5683 30.2143C9.33247 30.8604 9.6697 31.5811 10.3174 31.8162L11.632 32.2933C12.28 32.5285 13.0029 32.1922 13.2385 31.5464L14.223 28.8492L14.2866 28.6744C14.4282 28.3469 14.8102 28.1821 15.1558 28.2893ZM31.1174 33.9232C31.4762 34.281 31.9719 34.5021 32.5186 34.5021C33.0654 34.5021 33.5611 34.281 33.9191 33.9232C34.2775 33.5661 34.4994 33.072 34.4994 32.5266C34.4994 31.981 34.2775 31.487 33.9191 31.1294C33.5611 30.7721 33.0654 30.5508 32.5186 30.5508C31.9719 30.5508 31.4762 30.7721 31.1174 31.1294C30.7594 31.487 30.5377 31.981 30.5377 32.5266C30.5377 33.072 30.7594 33.5661 31.1174 33.9232Z" fill="#131631"/>
<path fill-rule="evenodd" clip-rule="evenodd" d="M22.4419 36.6659L15.0203 34.0697C14.6552 33.942 14.4655 33.5508 14.5985 33.2L15.2584 31.4569C15.3912 31.1062 15.7981 30.9238 16.163 31.0515L23.585 33.648C23.9496 33.7757 24.1395 34.1666 24.0067 34.5172L23.3466 36.2606C23.2138 36.6111 22.8067 36.7933 22.4419 36.6659Z" fill="#131631"/>
<path fill-rule="evenodd" clip-rule="evenodd" d="M20.4199 7.78429L6.85188 2.73918C6.79706 2.50069 6.71812 2.2692 6.61738 2.04816C6.2419 1.22582 5.55944 0.549577 4.65894 0.214793C3.75832 -0.120102 2.8099 -0.0502766 2.00501 0.333096C1.20013 0.71658 0.538346 1.41406 0.210344 2.33379C-0.117546 3.25376 -0.048944 4.22242 0.326201 5.04498C0.701679 5.86743 1.38437 6.54356 2.28487 6.87845C3.18526 7.21335 4.13369 7.14319 4.93879 6.75981C5.14949 6.6593 5.35041 6.53755 5.5382 6.39579L20.8937 12.1051L22.177 12.5822C22.8094 12.8174 23.515 12.4813 23.7452 11.8353L24.2123 10.5243L25.8742 5.8592C26.1046 5.21298 25.7755 4.49227 25.143 4.25733L23.8597 3.78023C23.2273 3.54507 22.5219 3.88085 22.2915 4.52696L21.3308 7.22413L21.2683 7.39914C21.1303 7.72659 20.7571 7.89148 20.4199 7.78429ZM4.83784 2.14978C4.48793 1.79243 4.00449 1.5715 3.47057 1.5715C2.93643 1.5715 2.4531 1.79243 2.10308 2.14978C1.75317 2.50747 1.53669 3.00136 1.53669 3.54696C1.53669 4.09255 1.75317 4.58622 2.10308 4.9438C2.4531 5.30149 2.93643 5.52242 3.47057 5.52242C4.00449 5.52242 4.48793 5.30149 4.83784 4.9438C5.18774 4.58622 5.40444 4.09255 5.40444 3.54696C5.40444 3.00136 5.18774 2.50747 4.83784 2.14978Z" fill="#131631"/>
<path fill-rule="evenodd" clip-rule="evenodd" d="M13.5246 0.0407138L20.4514 2.63726C20.792 2.76491 20.969 3.15606 20.8454 3.50641L20.229 5.24994C20.1053 5.6004 19.7254 5.78263 19.3848 5.65532L12.4578 3.05888C12.1174 2.93113 11.9402 2.54009 12.064 2.1894L12.6805 0.446213C12.8041 0.0957513 13.1839 -0.0869288 13.5246 0.0407138Z" fill="#131631"/>
</svg>
