<svg width="1311" height="330" viewBox="0 0 1311 330" fill="none" xmlns="http://www.w3.org/2000/svg">
<path fill-rule="evenodd" clip-rule="evenodd" d="M655.579 -0.000244141H539.189C516.472 -0.000244141 498.056 18.4157 498.056 41.133C498.056 61.0873 481.88 77.2635 461.926 77.2635L50 77.2635C22.3858 77.2635 0 99.6493 0 127.264L7.62939e-06 213.979C7.62939e-06 213.986 0 213.993 0 214V280C0 280.009 7.62939e-06 280.018 7.62939e-06 280.027V285.001H0.246941C2.75587 310.267 24.0735 330 50 330H1260.58C1286.51 330 1307.82 310.267 1310.33 285.001H1310.58V280.335C1310.58 280.223 1310.58 280.112 1310.58 280V214C1310.58 213.888 1310.58 213.777 1310.58 213.665V127.264C1310.58 99.6495 1288.19 77.2637 1260.58 77.2637L853.181 77.2637C832.935 77.2637 816.523 60.8513 816.523 40.6057C816.523 18.1797 798.343 -6.10352e-05 775.917 -6.10352e-05L655.579 -0.000244141Z" fill="#131631"/>
</svg>
