<svg width="331" height="736" viewBox="0 0 331 736" fill="none" xmlns="http://www.w3.org/2000/svg">
<path fill-rule="evenodd" clip-rule="evenodd" d="M41.8654 0.0904158C41.2517 0.0306091 40.6294 2.15366e-06 40 2.15366e-06L19 0C8.50659 -9.17363e-07 3.62747e-06 8.50659 2.71011e-06 19L0 21V31V715.358C0 726.404 8.9543 735.358 20 735.358H311C322.046 735.358 331 726.404 331 715.358V31V24V19C331 8.50659 322.493 2.15366e-06 312 2.15366e-06L291 0C290.371 -5.50023e-08 289.749 0.0305798 289.135 0.0903342H262.252C255.302 0.0903342 249.668 5.72431 249.668 12.6742C249.668 20.5863 243.254 27.0004 235.342 27.0004L165.618 27.0005L94.7304 27.0005C86.9197 27.0005 80.5879 20.6686 80.5879 12.858C80.5879 5.80664 74.8717 0.0904181 67.8204 0.0904181L41.8654 0.0904158Z" fill="#131631"/>
</svg>
