<svg width="57" height="58" viewBox="0 0 57 58" fill="none" xmlns="http://www.w3.org/2000/svg">
<path fill-rule="evenodd" clip-rule="evenodd" d="M12.2999 24.7347L4.32828 46.1735C3.95178 46.2599 3.58547 46.3843 3.23639 46.5438C1.93701 47.1367 0.868138 48.2155 0.339323 49.6385C-0.189844 51.0614 -0.0793369 52.5597 0.526429 53.8314C1.13237 55.1039 2.2341 56.1498 3.68755 56.6672C5.14118 57.1853 6.67193 57.0776 7.97165 56.4843C9.27103 55.8908 10.3392 54.8126 10.8687 53.3896C11.3974 51.9667 11.287 50.4685 10.6813 49.1963C10.5224 48.8632 10.3297 48.5457 10.1055 48.2492L19.1268 23.9862L19.8812 21.9583C20.2528 20.959 19.7217 19.8443 18.7008 19.4804L16.6293 18.7427L9.25785 16.1159C8.23729 15.7527 7.09814 16.272 6.72674 17.2713L5.9727 19.2993C5.60112 20.2986 6.13257 21.4137 7.15296 21.7768L11.4151 23.2954L11.6915 23.394C12.2089 23.6122 12.4689 24.2018 12.2999 24.7347ZM3.39732 49.3553C2.83231 49.9084 2.48304 50.6726 2.48304 51.5161C2.48304 52.3597 2.83231 53.124 3.39732 53.6768C3.96197 54.2294 4.74254 54.5718 5.60463 54.5718C6.46673 54.5718 7.24677 54.2294 7.81178 53.6768C8.37643 53.124 8.72605 52.3597 8.72605 51.5161C8.72605 50.6726 8.37643 49.9084 7.81178 49.3553C7.24677 48.8024 6.46673 48.4604 5.60463 48.4604C4.74254 48.4604 3.96197 48.8024 3.39732 49.3553Z" fill="#131631"/>
<path fill-rule="evenodd" clip-rule="evenodd" d="M0.0571716 35.6296L3.70406 24.6841C3.88326 24.1462 4.43263 23.8661 4.92526 24.062L7.37362 25.0352C7.86607 25.2314 8.12222 25.8315 7.94319 26.3697L4.2963 37.3147C4.1171 37.8525 3.56756 38.1327 3.07511 37.9372L0.626746 36.9637C0.134298 36.7675 -0.122028 36.1673 0.0571716 35.6296Z" fill="#131631"/>
<path fill-rule="evenodd" clip-rule="evenodd" d="M44.7 33.0521L52.6716 11.0907C53.0478 11.0018 53.4148 10.8744 53.7639 10.7108C55.0629 10.1031 56.1318 8.99823 56.6609 7.54092C57.1897 6.0836 57.0798 4.54828 56.4738 3.24521C55.8675 1.94233 54.766 0.870817 53.312 0.340245C51.8587 -0.190327 50.328 -0.0796447 49.0279 0.528054C47.7289 1.1354 46.6603 2.24064 46.1312 3.69796C45.6022 5.15562 45.7129 6.69059 46.3183 7.99366C46.4775 8.33502 46.6698 8.66004 46.894 8.96432L37.8724 33.819L37.1187 35.8961C36.7471 36.9197 37.2782 38.0618 38.2986 38.4344L40.3706 39.1904L47.7417 41.8807C48.763 42.2533 49.9009 41.7208 50.2728 40.6973L51.0268 38.6201C51.3988 37.5966 50.867 36.4545 49.8469 36.0818L45.5848 34.5265L45.3084 34.4253C44.7907 34.2018 44.5307 33.5983 44.7 33.0521ZM53.6029 7.8308C54.1669 7.26421 54.5169 6.48188 54.5169 5.6175C54.5169 4.75313 54.1669 3.97045 53.6029 3.40386C53.0379 2.83727 52.2567 2.48695 51.3958 2.48695C50.5328 2.48695 49.7528 2.83727 49.1878 3.40386C48.6228 3.97045 48.2739 4.75313 48.2739 5.6175C48.2739 6.48188 48.6228 7.26421 49.1878 7.8308C49.7528 8.39738 50.5328 8.7477 51.3958 8.7477C52.2567 8.7477 53.0379 8.39738 53.6029 7.8308Z" fill="#131631"/>
<path fill-rule="evenodd" clip-rule="evenodd" d="M56.9355 21.5392L52.8325 33.2666C52.6306 33.8429 52.0135 34.1426 51.4586 33.9328L48.7044 32.8898C48.1508 32.6803 47.8629 32.0372 48.0635 31.4607L52.1665 19.7337C52.3676 19.1569 52.9866 18.8572 53.5407 19.067L56.2944 20.1102C56.8485 20.3196 57.1365 20.9628 56.9355 21.5392Z" fill="#131631"/>
<path fill-rule="evenodd" clip-rule="evenodd" d="M23.9475 44.6997L45.9095 52.6711C45.9979 53.0478 46.1256 53.4141 46.2887 53.7634C46.8964 55.0628 48.0007 56.1311 49.4584 56.6603C50.9166 57.1891 52.4514 57.0791 53.7546 56.4728C55.0573 55.867 56.1285 54.7653 56.6596 53.3117C57.1895 51.8584 57.0795 50.3278 56.4716 49.0279C55.8636 47.7286 54.7595 46.6602 53.3013 46.131C51.8437 45.6019 50.3085 45.7122 49.0063 46.3182C48.6648 46.4768 48.3398 46.6695 48.0355 46.8937L23.1812 37.8724L21.1035 37.118C20.08 36.7466 18.9378 37.2779 18.5656 38.2984L17.8094 40.3703L15.1188 47.7414C14.7462 48.7623 15.279 49.9011 16.3024 50.2727L18.3797 51.0265C19.4036 51.3981 20.5457 50.8667 20.918 49.8463L22.4737 45.5845L22.5742 45.3083C22.7978 44.7907 23.4015 44.5304 23.9475 44.6997ZM49.1685 53.6019C49.7354 54.1673 50.5187 54.5165 51.3825 54.5165C52.2465 54.5165 53.0297 54.1673 53.5954 53.6019C54.1617 53.0376 54.5124 52.2569 54.5124 51.3951C54.5124 50.533 54.1617 49.7525 53.5954 49.1875C53.0297 48.6228 52.2465 48.2732 51.3825 48.2732C50.5187 48.2732 49.7354 48.6228 49.1685 49.1875C48.6028 49.7525 48.2525 50.533 48.2525 51.3951C48.2525 52.2569 48.6028 53.0376 49.1685 53.6019Z" fill="#131631"/>
<path fill-rule="evenodd" clip-rule="evenodd" d="M35.4605 57.9357L23.7336 53.8335C23.1568 53.6316 22.8571 53.0135 23.0672 52.4592L24.1099 49.705C24.3197 49.1509 24.9627 48.8626 25.5393 49.0645L37.2667 53.1671C37.8428 53.3689 38.1429 53.9865 37.9331 54.5406L36.89 57.2954C36.6803 57.8491 36.0369 58.1371 35.4605 57.9357Z" fill="#131631"/>
<path fill-rule="evenodd" clip-rule="evenodd" d="M32.2652 12.2999L10.8264 4.32817C10.7398 3.95132 10.6151 3.58555 10.4559 3.23628C9.86261 1.93691 8.78425 0.868385 7.36137 0.339394C5.93831 -0.189773 4.43971 -0.0794418 3.16792 0.526324C1.89613 1.13227 0.850445 2.23434 0.332171 3.68762C-0.185927 5.14125 -0.077529 6.67182 0.515236 7.97155C1.10853 9.2711 2.18724 10.3394 3.61012 10.8686C5.03283 11.3978 6.53143 11.2869 7.80357 10.6812C8.1365 10.5223 8.45396 10.33 8.7507 10.106L33.0138 19.1273L35.0416 19.8811C36.0409 20.2527 37.1558 19.7216 37.5195 18.7009L38.2575 16.6294L40.8835 9.2581C41.2475 8.23701 40.7275 7.09821 39.7282 6.72699L37.7004 5.97312C36.7011 5.60154 35.5866 6.13212 35.2225 7.15303L33.7044 11.4148L33.6057 11.6913C33.3877 12.2087 32.7981 12.4693 32.2652 12.2999ZM7.64405 3.39686C7.09117 2.8322 6.32728 2.48312 5.48364 2.48312C4.63964 2.48312 3.87594 2.8322 3.32288 3.39686C2.76999 3.96204 2.42793 4.74244 2.42793 5.60453C2.42793 6.46662 2.76999 7.24667 3.32288 7.81167C3.87594 8.37686 4.63964 8.72594 5.48364 8.72594C6.32728 8.72594 7.09117 8.37686 7.64405 7.81167C8.19693 7.24667 8.53935 6.46662 8.53935 5.60453C8.53935 4.74244 8.19693 3.96204 7.64405 3.39686Z" fill="#131631"/>
<path fill-rule="evenodd" clip-rule="evenodd" d="M21.3701 0.0643317L32.3151 4.16713C32.8533 4.36882 33.1329 4.98688 32.9376 5.54047L31.9636 8.2954C31.7682 8.84916 31.1679 9.13711 30.6298 8.93595L19.6843 4.83333C19.1466 4.63147 18.8665 4.01358 19.0622 3.45947L20.0362 0.705059C20.2316 0.151296 20.8318 -0.137356 21.3701 0.0643317Z" fill="#131631"/>
</svg>
