<svg width="15" height="15" viewBox="0 0 15 15" fill="none" xmlns="http://www.w3.org/2000/svg">
<path fill-rule="evenodd" clip-rule="evenodd" d="M0.313811 0.313811C0.732237 -0.104604 1.41062 -0.104604 1.82905 0.313811L7.50001 5.9848L13.171 0.313811C13.5894 -0.104604 14.2678 -0.104604 14.6862 0.313811C15.1046 0.732237 15.1046 1.41062 14.6862 1.82905L9.01523 7.50001L14.6862 13.171C15.1046 13.5894 15.1046 14.2678 14.6862 14.6862C14.2678 15.1046 13.5894 15.1046 13.171 14.6862L7.50001 9.01523L1.82905 14.6862C1.41062 15.1046 0.732237 15.1046 0.313811 14.6862C-0.104604 14.2678 -0.104604 13.5894 0.313811 13.171L5.9848 7.50001L0.313811 1.82905C-0.104604 1.41062 -0.104604 0.732237 0.313811 0.313811Z" fill="#4D5463" fill-opacity="0.46"/>
</svg>
