<svg width="62" height="62" viewBox="0 0 62 62" fill="none" xmlns="http://www.w3.org/2000/svg">
<path d="M21.7933 43.8297L8.51381 57.109C7.73282 57.8899 6.46647 57.8901 5.68549 57.109C4.90438 56.328 4.90438 55.0617 5.68549 54.2807L18.965 41.0013C19.7462 40.2205 21.0126 40.2202 21.7933 41.0013C22.5744 41.7823 22.5744 43.0487 21.7933 43.8297ZM4.25002 44.3322C3.46891 43.551 3.46891 42.2848 4.25002 41.5038L9.48991 36.2638C10.2709 35.4827 11.5372 35.4827 12.3182 36.2638C13.0993 37.0449 13.0993 38.3111 12.3182 39.0921L7.07834 44.3322C6.29748 45.113 5.031 45.1131 4.25002 44.3322ZM26.5308 50.4763C27.3119 51.2573 27.3119 52.5236 26.5308 53.3046L21.2908 58.5445C20.9003 58.9351 20.3885 59.1304 19.8767 59.1304C18.1109 59.1304 17.1991 56.9795 18.4626 55.7162L23.7026 50.4763C24.4835 49.6952 25.7498 49.6952 26.5308 50.4763Z" fill="#131631"/>
<path d="M59.3757 0.10173L1.37683 19.0535C-0.261135 19.5887 -0.498006 21.8167 0.992715 22.6834L22.911 35.4285C23.6025 35.8306 24.4668 35.7822 25.1087 35.3053L31.2701 30.7296L26.6945 36.891C26.2177 37.5331 26.1692 38.3975 26.5712 39.0888L39.3163 61.0071C40.1841 62.4991 42.4115 62.2596 42.9464 60.623L61.8981 2.62418C62.4065 1.06684 60.9254 -0.40501 59.3757 0.10173ZM40.5303 55.1378L30.6915 38.2175L42.5554 22.2422C43.1465 21.4459 43.0651 20.3368 42.3639 19.6356C41.6628 18.9344 40.5534 18.8529 39.7573 19.4441L23.782 31.3081L6.86185 21.4692L56.8717 5.12788L40.5303 55.1378Z" fill="#131631"/>
</svg>
