<svg width="331" height="419" viewBox="0 0 331 419" fill="none" xmlns="http://www.w3.org/2000/svg">
<path fill-rule="evenodd" clip-rule="evenodd" d="M100 418.954C92.5984 418.367 86.7751 412.175 86.7751 404.623C86.7751 397.968 81.3803 392.573 74.7255 392.573L15.4087 392.573C6.89869 392.573 2.28882e-05 385.674 2.28882e-05 377.164L7.24792e-05 31.0529L0 31L1.90735e-06 19C1.90735e-06 8.50659 8.50659 0 19 0L58 1.90735e-06C68.4934 3.8147e-06 77 8.5066 77 19V31C77 32.4911 76.8282 33.942 76.5034 35.3341C76.5369 35.7702 76.554 36.2109 76.554 36.6556C76.554 48.9603 86.5289 58.9353 98.8337 58.9353L163 58.9353H167.417L231.583 58.9353C243.888 58.9353 253.863 48.9603 253.863 36.6556C253.863 36.2109 253.88 35.7702 253.914 35.3341C253.589 33.942 253.417 32.4911 253.417 31V19C253.417 8.5066 261.924 3.8147e-06 272.417 1.90735e-06L311.417 0C321.911 0 330.417 8.50659 330.417 19V31L330.417 31.0529L330.417 377.164C330.417 385.674 323.518 392.573 315.008 392.573L255.692 392.573C249.037 392.573 243.642 397.968 243.642 404.623C243.642 411.976 238.122 418.04 231 418.896V419H100L100 418.954Z" fill="#EFF2FC"/>
</svg>
