<svg width="1312" height="739" viewBox="0 0 1312 739" fill="none" xmlns="http://www.w3.org/2000/svg">
<path fill-rule="evenodd" clip-rule="evenodd" d="M453.35 1.90735e-05L655.847 0H656L858.497 1.90735e-05C883.061 1.90735e-05 902.974 19.9134 902.974 44.4777C902.974 69.0421 922.888 88.9554 947.452 88.9554L1256.85 88.9554C1287.22 88.9554 1311.85 113.58 1311.85 143.955V691H1311.71C1311.9 692.64 1312 694.309 1312 696C1312 719.748 1292.75 739 1269 739H1087C1086.34 739 1085.68 738.985 1085.03 738.956L864.302 738.955C845.896 738.955 830.974 724.034 830.974 705.628C830.974 681.533 811.442 662 787.346 662L657 662L531.5 662C507.405 662 487.872 681.533 487.872 705.628C487.872 724.034 472.951 738.955 454.545 738.955H226.975C226.32 738.985 225.662 739 225 739H43C19.2518 739 0 719.748 0 696C0 694.651 0.0620956 693.317 0.183586 692H2.28882e-05L0 143.955C0 113.58 24.6243 88.9554 55 88.9554L364.394 88.9554C388.959 88.9554 408.872 69.0421 408.872 44.4777C408.872 19.9134 428.785 1.90735e-05 453.35 1.90735e-05Z" fill="#EFF2FC"/>
</svg>
